PathFileType	4	(X/Y/Z)	/home/abdul/Desktop/myosuite/custom_workspace/IK/output/S4_12_1.trc
DataRate	CameraRate	NumFrames	NumMarkers	Units	OrigDataRate	OrigDataStartFrame	OrigNumFrames
200.0	200.0	67	3	mm	200.0	848	1130
Frame#	Time	V_Shoulder			V_Elbow			V_Wrist		
		X1	Y1	Z1	X2	Y2	Z2	X3	Y3	Z3

848	4.235	-83.36340747208445	568.7299333621594	274.69050256851506	-158.61307911670826	437.6689757923333	14.214362873046522	-117.60795756296613	235.38510815810565	97.29467399475344
849	4.24	-83.31711902976885	568.871168082118	274.74428375608204	-159.50189105675526	438.2650837312395	14.2776707557483	-119.25768474914159	236.08227465298083	98.09360399408837
850	4.245	-83.27203035658442	569.0171132645769	274.7981168901361	-160.40281852967607	438.8529625307969	14.355482878055733	-120.93842929606316	236.7568017293289	98.8668977089308
851	4.25	-83.22826772243859	569.1676796730169	274.8519249519502	-161.31513631917505	439.43182446460145	14.447946896835832	-122.649029052428	237.40755030978772	99.61306343494584
852	4.255	-83.18595876833517	569.3227660700824	274.9056280772674	-162.23809436593837	440.0008982295483	14.55517239755769	-124.38826260089343	238.03343130275042	100.33064870356176
853	4.26	-83.14523231250116	569.4822593167981	274.95914365859454	-163.17091920399102	440.5594308289219	14.677230070557407	-126.15485130616204	238.63340868412664	101.01824364642883
854	4.265	-83.10621815020644	569.6460345104039	275.01238646011075	-164.11281547675486	441.1066893947087	14.814151023273054	-127.94746152629122	239.20650239550787	101.67448423454144
855	4.27	-83.06904684750965	569.8139551606971	275.0652687451988	-165.0629675279178	441.64196294319584	14.965926233010808	-129.76470698230068	239.75179104757711	102.29805538312723
856	4.275	-83.03384952918958	569.9858734046339	275.117700416549	-166.02054106182294	442.1645640582815	15.132506144174496	-131.605151280569	240.2684144186291	102.8876939141254
857	4.28	-83.00075766114672	570.1616302587912	275.1695891687247	-166.98468486772248	442.6738304973116	15.31380041322223	-133.46731058193689	240.75557573914267	103.44219136881378
858	4.285	-82.96990282758648	570.3410559091532	275.22084065302414	-167.95453260192008	443.16912671466036	15.509677803908946	-135.3496564108723	241.21254375446713	103.9603966639001
859	4.29	-82.9414165033219	570.5239700375495	275.27135865440664	-168.92920462154967	443.6498452986988	15.719966234637344	-137.25061859750318	241.63865455883737	104.44121858515476
860	4.295	-82.91542982156105	570.7101821839275	275.3210452801967	-169.90780986350924	444.1154083182287	15.944452978978097	-139.16858834479163	242.0333131951101	104.8836281134305
861	4.3	-82.8920733375705	570.8994921435191	275.3698011602134	-170.88944776188603	444.56526857490553	16.182885019639027	-141.10192141261064	242.39599501580764	105.28666057867859
862	4.305	-82.87147678863305	571.091690397821	275.41752565791575	-171.8732101970764	444.99891075862297	16.43496955536953	-143.04894140999446	242.72624680225613	105.64941763832834
863	4.31	-82.85376885074403	571.2865585781934	275.4641170920911	-172.85818346971467	445.4158525032784	16.700374659488354	-145.0079431863702	243.02368763980326	105.9710690771411
864	4.315	-82.83907689251572	571.4838699607551	275.50947296855844	-173.84345029248468	445.8156453407934	16.978730087926763	-146.97719631214378	243.2880095482853	106.25085442637554
865	4.32	-82.82752672678436	571.6833899911375	275.5534902212954	-174.8280917928872	446.1978755516973	17.269628233893453	-148.95494863861074	243.51897786808283	106.48808440080577
866	4.325	-82.8192423604377	571.884876837557	275.5960654623459	-175.81118952007995	446.56216491102174	17.57262522549905	-150.93942992679615	243.71643140324102	106.68214215281048
867	4.33	-82.8143457430039	572.0880819705518	275.6370952398075	-176.79182744898606	446.9081713286734	17.887242161934008	-152.92885553449813	243.8802823242363	106.83248434339971
868	4.335	-82.81295651456321	572.29275076764	275.67647630314724	-177.76909397498147	447.23558938385975	18.21296648308091	-154.9214301505241	244.01051583403122	106.93864203066013
869	4.34	-82.81519175356432	572.4986231410594	275.7141058750439	-178.7420838926197	447.54415075353984	18.549253466766427	-156.9153515648632	244.107189602074	107.00022137667904
870	4.345	-82.82116572514438	572.7054341866695	275.7498819289065	-179.70990035202567	447.8336245352452	18.89552784722536	-158.90881446334163	244.17043297185702	107.0169041745486
871	4.35	-82.83098963056894	572.912914852012	275.78370347117857	-180.67165678679186	448.1038174649782	19.251185547763548	-160.90001423515793	244.2004459485488	106.98844819755513
872	4.355	-82.84477135842144	573.120792621465	275.81547082749114	-181.62647880743035	448.3545740312343	19.615595520072727	-162.88715078159532	244.1974979740502	106.91468737312049
873	4.36	-82.86261523818443	573.328792216353	275.84508593169676	-182.57350605467587	448.5857764865137	19.988101682171166	-164.8684323141597	244.16192649759563	106.79553178448526
874	4.365	-82.8846217968649	573.5366363078282	275.8724526167784	-183.5118940071901	448.79734475799484	20.368024946522166	-166.84207913039586	244.09413535072088	106.63096750350599
875	4.37	-82.91088751932344	573.7440462402855	275.8974769066012	-184.44081573848683	448.98923625932133	20.754665329519614	-168.80632735569037	243.99459293604727	106.42105625828118
876	4.375	-82.94150461297237	573.9507427630315	275.9200673074485	-185.35946361817673	449.1614456057175	21.147304133226918	-170.7594326394796	243.86383023988998	106.16593493962444
877	4.38	-82.97656077751121	574.1564467679027	275.9401350982632	-186.26705095291766	449.3140042348948	21.545206190012884	-172.69967379444282	243.7024386791819	105.86581495066994
878	4.385	-83.01613898036787	574.3608800304934	275.95759461849985	-187.1628135627497	449.44697993643456	21.94762216054508	-174.6253563674751	243.51106779361658	105.52098140412582
879	4.39	-83.06031723851201	574.5637659526436	275.97236355248054	-188.04601128879278	449.56047629254317	22.353790875476797	-176.534816131499	243.2904227942542	105.13179217188713
880	4.395	-83.10916840730225	574.7648303038263	275.9843632091428	-188.91592942858347	449.6546320332645	22.762941711096474	-178.426422487489	243.04126198010567	104.69867679188563
881	4.4	-83.16275997702157	574.9638019590678	275.99351879606417	-189.7718800956314	449.7296203094088	23.174296989195987	-180.29858176644404	242.764394034413	104.2221352371884
882	4.405	-83.2211538777458	575.1604136310469	275.99975968665166	-190.61320350007634	449.78564788661475	23.587074391454454	-182.14974042145212	242.46067521248114	103.70273655246535
883	4.41	-83.28440629317714	575.3544025940256	276.003019679393	-191.43926914762943	449.82295426410184	24.00048937872368	-183.97838810043783	242.13100643299498	103.14111736302993
884	4.415	-83.35256748406009	575.5455113972936	276.0032372480794	-192.24947695428096	449.8418107217972	24.413757605737846	-185.78306059067648	241.7763302847685	102.53798026171808
885	4.42	-83.42568162177965	575.7334885658263	276.00035578192643	-193.0432582745562	449.84251929963045	24.826097321949145	-187.56234262668215	241.39762796084023	101.89409207891403
886	4.425	-83.50378663272208	575.9180892859039	275.99432381454284	-193.82007684139418	449.8254117128905	25.23673174941029	-189.31487055363627	240.99591613173516	101.2102820410562
887	4.43	-83.58691405395594	576.0990760734729	275.9850952407266	-194.57942961601861	449.7908482076166	25.64489142887963	-191.03933483911433	240.572243769582	100.48743982296833
888	4.435	-83.67508890076675	576.2762194230903	275.97262952009606	-195.3208475464558	449.73921636007276	26.049816525612407	-192.734482426479	240.12768893459227	99.72651349936078
889	4.44	-83.76832954655258	576.4492984353395	275.95689186660525	-196.04389623364168	449.67092982440715	26.450759086617772	-194.3991189239473	239.66335553519085	98.92850740083693
890	4.445	-83.86664761555788	576.6181014206795	275.93785342302886	-196.74817650433909	449.5864270326471	26.846985241503194	-196.03211062399242	239.1803700728355	98.09447987972226
891	4.45	-83.97004788889352	576.7824264777564	275.9154914195549	-197.43332489036277	449.4861698512159	27.23777733939122	-197.63238634840917	238.67987838227864	97.2255409910124
892	4.455	-84.07852822425731	576.9420820442842	275.8897893156657	-198.0990140138818	449.37064219818103	27.622436014775904	-199.19893911505017	238.16304237771433	96.32285009370955
893	4.46	-84.19207948973538	577.0968874186871	275.86073692454823	-198.7449528788358	449.24034862545847	28.00028217558383	-200.73082762292478	237.63103681492095	95.38761337778995
894	4.465	-84.3106855120285	577.2466732507855	275.8283305193283	-199.37088706876267	449.0958128702058	28.370658907114937	-202.2271775530397	237.08504607915546	94.42108132201724
895	4.47	-84.43432303940993	577.391281999906	275.79257292048766	-199.97659885159317	448.9375763796329	28.732933285958616	-203.68718268304448	236.52626100818804	93.42454608779039
896	4.475	-84.56296171968256	577.5305683588945	275.7534735638867	-200.56190719221715	448.76619681344965	29.086498098408384	-205.11010581442724	235.95587575948014	92.39933885419012
897	4.48	-84.69656409336206	577.6643996426244	275.71104854888443	-201.12666767387316	448.58224652815466	29.430773458331558	-206.495279511677	235.37508473011872	91.34682709936669
898	4.485	-84.83508560227234	577.7926561396989	275.66532066611717	-201.6707723296496	448.3863110473442	29.765208319887165	-207.84210665348976	234.7850795377155	90.26841183339482
899	4.49	-84.97847461369639	577.9152314261704	275.6163194045738	-202.19414938561889	448.17898752219344	30.089281880924243	-209.15006079674168	234.18704607007305	89.1655247877078
900	4.495	-85.12667246018255	578.032032640219	275.5640809376793	-202.69676291734947	447.9608831862281	30.402504873332127	-210.4186863545812	233.5821616110077	88.03962556621465
901	4.5	-85.27961349506221	578.1429807168591	275.5086480881782	-203.1786124217575	447.73261380846384	30.70442073705361	-211.64759859060047	232.97159204930256	86.89219876320078
902	4.505	-85.43722516368983	578.2480105818772	275.4500702716892	-203.63973230646724	447.4948021489497	30.994606674910152	-212.83648343163316	232.35648917734932	85.72475105311315
903	4.51	-85.59942809037166	578.3470713043358	275.3884034188837	-204.08019129904886	447.248076420702	31.272674585824607	-213.9850971022877	231.73798808561804	84.5388082573372
904	4.515	-85.76613618090299	578.4401262071146	275.32370987632527	-204.50009177869066	446.993068761961	31.53827187446133	-215.0932655848609	231.1172046586766	83.33591239308234
905	4.52	-85.937256740589	578.5271529351072	275.25605828608917	-204.89956903304295	446.7304137226473	31.791082135735486	-216.1608839087857	230.49523317806444	82.11761870950784
906	4.525	-86.11269060757785	578.6081434808281	275.1855234443664	-205.27879044313747	446.460746768828	32.03082571307247	-217.18791527424662	229.87314403690868	80.88549271623715
907	4.53	-86.29233230128845	578.6831041673327	275.11218613934346	-205.6379545994457	446.1847028089371	32.25726012972491	-218.17439001504516	229.25198157075317	79.64110720943061
908	4.535	-86.47607018567085	578.7520555884998	275.03613296872817	-205.97729035228372	445.902914745418	32.470180392878206	-219.12040440621854	228.6327620086558	78.38603930060786
909	4.54	-86.6637866469904	578.8150325068746	274.95745613738353	-206.2970557999058	445.61601205537585	32.669419170695704	-220.02611932230255	228.01647154819443	77.12186745343624
910	4.545	-86.85535828578308	578.8720837094128	274.87625323560815	-206.59753721775155	445.32461940373724	32.854846842872234	-220.89175875248563	227.40406455760666	75.85016853372605
911	4.55	-87.05065612258421	578.9232718216235	274.7926269986887	-206.87904793242114	445.02935529232195	33.02637142567745	-221.7176081792291	226.79646190787287	74.57251487789809
912	4.555	-87.24954581698978	578.9686730807485	274.70668504842905	-207.1419271440516	444.7308307481229	33.1839383728807	-222.50401282722206	226.1945494371376	73.29047138521281
913	4.56	-87.45188789956615	579.0083770687629	274.6185396174388	-207.38653870085375	444.42964805398015	33.32753025435347	-223.25137578980446	225.59917654944803	72.00559263907213
914	4.565	-87.65753801608264	579.0424864061316	274.5283072570437	-207.6132698296434	444.1263995247097	33.45716631454624	-223.9601560402271	225.01115494937082	70.7194200627242
